# xmcd
#
# Track frame offsets: 
#        150
#        17520
#        33972
#        54900
#        68159
#        90790
#        112284
#        128182
#        147316
#        169249
#        182987
#        196166
#        213776
#        237154
#
# Disc length: 3430 seconds
#
# Revision: 0
# Processed by: cddbd v1.5.2PL0 Copyright (c) Steve Scherf et al.
# Submitted via: ExactAudioCopy v0.95b4
#
DISCID=ba0d640e
DTITLE=Chris LeBlanc - Son of the South
DYEAR=2001
DGENRE=Rock
TTITLE0=Let The Good Times Roll
TTITLE1=Christina Marie
TTITLE2=My Way Home
TTITLE3=Just A Clown
TTITLE4=Cadillac
TTITLE5=Sister Let The Music Play
TTITLE6=Divin' Duck Blues
TTITLE7=Crossroad Blues
TTITLE8=Mr. Blue Sky
TTITLE9=Hi Fi Mama
TTITLE10=Working Hands
TTITLE11=Louisiana 1927
TTITLE12=When The Levee Breaks
TTITLE13=Deliver Me
EXTD=
EXTT0=
EXTT1=
EXTT2=
EXTT3=
EXTT4=
EXTT5=
EXTT6=
EXTT7=
EXTT8=
EXTT9=
EXTT10=
EXTT11=
EXTT12=
EXTT13=
PLAYORDER=
